<svg width="1598" height="1892" viewBox="0 0 1598 1892" fill="none" xmlns="http://www.w3.org/2000/svg">
<g filter="url(#filter0_d_77_77)">
<path d="M326.879 1174.06V996.986L165.573 996.983L326.879 1174.06Z" fill="url(#paint0_linear_77_77)"/>
<path d="M480.32 1262.6L641.626 1355.67V1246.73H507.809L480.32 1262.6Z" fill="url(#paint1_linear_77_77)"/>
<path d="M641.626 1169.52V1246.73H948.505V1178.6L787.199 1085.52L641.626 1169.52Z" fill="url(#paint2_linear_77_77)"/>
<path d="M1263.25 1174.06L1416.69 996.986L1263.25 996.983V1174.06Z" fill="url(#paint3_linear_77_77)"/>
<path d="M948.505 1246.73H1066.59L948.505 1178.6V1246.73Z" fill="url(#paint4_linear_77_77)"/>
<path d="M948.505 1355.67L1101.95 1267.14L1066.59 1246.73H948.505V1355.67Z" fill="url(#paint5_linear_77_77)"/>
<path d="M795.068 1444.21L948.505 1355.67V1246.73H641.626V1355.67L795.068 1444.21Z" fill="url(#paint6_linear_77_77)"/>
<path d="M795.068 1444.21L948.505 1532.75V1355.67L795.068 1444.21Z" fill="url(#paint7_linear_77_77)"/>
<path d="M984.361 1553.43L1109.82 1625.82L1235.27 1553.43H984.361Z" fill="url(#paint8_linear_77_77)"/>
<path d="M1263.25 1360.21V1537.29L1416.69 1448.75L1263.25 1360.21Z" fill="url(#paint9_linear_77_77)"/>
<path d="M948.505 1532.75L984.361 1553.43H1235.27L1263.25 1537.29V1360.21L1101.95 1267.14L948.505 1355.67V1532.75Z" fill="url(#paint10_linear_77_77)"/>
<path d="M1235.27 1553.43L1109.82 1625.82L1263.25 1714.36V1553.43H1235.27Z" fill="url(#paint11_linear_77_77)"/>
<path d="M1578 1709.82V1553.43H1263.25V1714.36L1416.69 1802.9L1578 1709.82Z" fill="url(#paint12_linear_77_77)"/>
<path d="M1416.69 1448.75L1263.25 1537.29V1553.43H1578V1541.83L1416.69 1448.75Z" fill="url(#paint13_linear_77_77)"/>
<path d="M1578 1355.67L1416.69 1448.75L1578 1541.83V1355.67Z" fill="url(#paint14_linear_77_77)"/>
<path d="M1416.69 722.293L1578 629.217V617.603H1263.25V633.755L1416.69 722.293Z" fill="url(#paint15_linear_77_77)"/>
<path d="M1578 629.217L1416.69 722.293L1578 815.369V629.217Z" fill="url(#paint16_linear_77_77)"/>
<path d="M326.879 1246.73V1174.06L165.573 996.983L20 1174.06V1246.73H326.879Z" fill="url(#paint17_linear_77_77)"/>
<path d="M20 1360.21L165.573 1444.21L326.879 1351.13V1246.73H20V1360.21Z" fill="url(#paint18_linear_77_77)"/>
<path d="M165.573 1444.21L326.879 1537.29V1351.13L165.573 1444.21Z" fill="url(#paint19_linear_77_77)"/>
<path d="M20 1360.21V1528.21L165.573 1444.21L20 1360.21Z" fill="url(#paint20_linear_77_77)"/>
<path d="M165.573 1444.21L20 1528.21V1553.43H326.879V1537.29L165.573 1444.21Z" fill="url(#paint21_linear_77_77)"/>
<path d="M326.879 1553.43V1714.36L480.32 1625.82L354.866 1553.43H326.879Z" fill="url(#paint22_linear_77_77)"/>
<path d="M354.866 1553.43L480.32 1625.82L605.775 1553.43H354.866Z" fill="url(#paint23_linear_77_77)"/>
<path d="M641.626 1532.75L795.068 1444.21L641.626 1355.67V1532.75Z" fill="url(#paint24_linear_77_77)"/>
<path d="M326.879 1537.29L354.866 1553.43H605.775L641.626 1532.75V1355.67L480.32 1262.6L326.879 1351.13V1537.29Z" fill="url(#paint25_linear_77_77)"/>
<path d="M1416.69 1802.9L1529.52 1868H1578V1709.82L1416.69 1802.9Z" fill="url(#paint26_linear_77_77)"/>
<path d="M1303.87 1868H1529.52L1416.69 1802.9L1303.87 1868Z" fill="url(#paint27_linear_77_77)"/>
<path d="M1263.25 1868H1303.87L1416.69 1802.9L1263.25 1714.36V1868Z" fill="url(#paint28_linear_77_77)"/>
<path d="M1263.25 1360.21L1416.69 1448.75L1578 1355.67V1246.73H1263.25V1360.21Z" fill="url(#paint29_linear_77_77)"/>
<path d="M1263.25 1246.73H1578V1178.6L1416.69 996.986L1263.25 1174.06V1246.73Z" fill="url(#paint30_linear_77_77)"/>
<path d="M1416.69 996.986L1578 1178.6V992.445L1416.69 996.986Z" fill="url(#paint31_linear_77_77)"/>
<path d="M1263.25 810.831V932.169H1578V815.369L1416.69 722.293L1263.25 810.831Z" fill="url(#paint32_linear_77_77)"/>
<path d="M1416.69 722.293L1263.25 633.755V810.831L1416.69 722.293Z" fill="url(#paint33_linear_77_77)"/>
<path d="M507.809 1246.73H641.626V1169.52L507.809 1246.73Z" fill="url(#paint34_linear_77_77)"/>
<path d="M1416.69 368.145L1263.25 456.683V617.603H1578V461.221L1416.69 368.145Z" fill="url(#paint35_linear_77_77)"/>
<path d="M1263.25 310.902V456.683L1416.69 368.145L1317.49 310.902H1263.25Z" fill="url(#paint36_linear_77_77)"/>
<path d="M1317.49 310.902L1416.69 368.145L1515.9 310.902H1317.49Z" fill="url(#paint37_linear_77_77)"/>
<path d="M1515.9 310.902L1416.69 368.145L1578 461.221V310.902H1515.9Z" fill="url(#paint38_linear_77_77)"/>
<path d="M20 1174.06L165.573 996.983H20V1174.06Z" fill="url(#paint39_linear_77_77)"/>
<path d="M326.879 932.169V819.909L165.573 726.833L20 810.831V932.169H326.879Z" fill="url(#paint40_linear_77_77)"/>
<path d="M480.32 908.448L326.879 819.909V932.169H439.211L480.32 908.448Z" fill="url(#paint41_linear_77_77)"/>
<path d="M354.874 617.603L326.879 633.757V819.909L480.32 908.448L641.626 815.371V638.295L605.766 617.603H354.874Z" fill="url(#paint42_linear_77_77)"/>
<path d="M326.879 819.909V633.757L165.573 726.833L326.879 819.909Z" fill="url(#paint43_linear_77_77)"/>
<path d="M354.874 617.603H605.766L480.32 545.219L354.874 617.603Z" fill="url(#paint44_linear_77_77)"/>
<path d="M641.626 638.295V815.371L795.068 726.833L641.626 638.295Z" fill="url(#paint45_linear_77_77)"/>
<path d="M641.626 638.295L795.068 726.833L948.505 638.298V617.603H641.626V638.295Z" fill="url(#paint46_linear_77_77)"/>
<path d="M605.766 617.603L641.626 638.295V617.603H605.766Z" fill="url(#paint47_linear_77_77)"/>
<path d="M480.32 545.219L605.766 617.603H641.626V452.143L480.32 545.219Z" fill="url(#paint48_linear_77_77)"/>
<path d="M641.626 617.603H948.505V452.14L795.068 363.605L641.626 452.143V617.603Z" fill="url(#paint49_linear_77_77)"/>
<path d="M795.068 726.833L948.505 815.369V638.298L795.068 726.833Z" fill="url(#paint50_linear_77_77)"/>
<path d="M948.505 815.369L1101.95 903.907L1263.25 810.831V633.755L1235.26 617.603H984.369L948.505 638.298V815.369Z" fill="url(#paint51_linear_77_77)"/>
<path d="M1109.82 545.219L984.369 617.603H1235.26L1109.82 545.219Z" fill="url(#paint52_linear_77_77)"/>
<path d="M948.505 452.14V617.603H984.369L1109.82 545.219L948.505 452.14Z" fill="url(#paint53_linear_77_77)"/>
<path d="M1101.95 903.907L1150.92 932.169H1263.25V810.831L1101.95 903.907Z" fill="url(#paint54_linear_77_77)"/>
<path d="M1263.25 310.902H1317.49L1263.25 279.607V310.902Z" fill="url(#paint55_linear_77_77)"/>
<path d="M1578 275.069L1515.9 310.902H1578V275.069Z" fill="url(#paint56_linear_77_77)"/>
<path d="M1416.69 16L1263.25 93.4546V279.607L1317.49 310.902H1515.9L1578 275.069V107.073L1416.69 16Z" fill="url(#paint57_linear_77_77)"/>
<path d="M948.505 617.603V638.298L984.369 617.603H948.505Z" fill="url(#paint58_linear_77_77)"/>
<path d="M326.879 1537.29V1553.43H354.866L326.879 1537.29Z" fill="url(#paint59_linear_77_77)"/>
<path d="M1263.25 1537.29L1235.27 1553.43H1263.25V1537.29Z" fill="url(#paint60_linear_77_77)"/>
<path d="M20 1553.43V1868H326.879V1714.36V1553.43H20Z" fill="url(#paint61_linear_77_77)"/>
</g>
<defs>
<filter id="filter0_d_77_77" x="0" y="0" width="1598" height="1892" filterUnits="userSpaceOnUse" color-interpolation-filters="sRGB">
<feFlood flood-opacity="0" result="BackgroundImageFix"/>
<feColorMatrix in="SourceAlpha" type="matrix" values="0 0 0 0 0 0 0 0 0 0 0 0 0 0 0 0 0 0 127 0" result="hardAlpha"/>
<feOffset dy="4"/>
<feGaussianBlur stdDeviation="10"/>
<feComposite in2="hardAlpha" operator="out"/>
<feColorMatrix type="matrix" values="0 0 0 0 0 0 0 0 0 0 0 0 0 0 0 0 0 0 0.25 0"/>
<feBlend mode="normal" in2="BackgroundImageFix" result="effect1_dropShadow_77_77"/>
<feBlend mode="normal" in="SourceGraphic" in2="effect1_dropShadow_77_77" result="shape"/>
</filter>
<linearGradient id="paint0_linear_77_77" x1="799" y1="-455.848" x2="799" y2="2705.53" gradientUnits="userSpaceOnUse">
<stop offset="0.407013" stop-color="#4F8792"/>
<stop offset="0.759732" stop-color="#FF5F5C"/>
</linearGradient>
<linearGradient id="paint1_linear_77_77" x1="799" y1="-455.848" x2="799" y2="2705.53" gradientUnits="userSpaceOnUse">
<stop offset="0.407013" stop-color="#4F8792"/>
<stop offset="0.759732" stop-color="#FF5F5C"/>
</linearGradient>
<linearGradient id="paint2_linear_77_77" x1="799" y1="-455.848" x2="799" y2="2705.53" gradientUnits="userSpaceOnUse">
<stop offset="0.407013" stop-color="#4F8792"/>
<stop offset="0.759732" stop-color="#FF5F5C"/>
</linearGradient>
<linearGradient id="paint3_linear_77_77" x1="799" y1="-455.848" x2="799" y2="2705.53" gradientUnits="userSpaceOnUse">
<stop offset="0.407013" stop-color="#4F8792"/>
<stop offset="0.759732" stop-color="#FF5F5C"/>
</linearGradient>
<linearGradient id="paint4_linear_77_77" x1="799" y1="-455.848" x2="799" y2="2705.53" gradientUnits="userSpaceOnUse">
<stop offset="0.407013" stop-color="#4F8792"/>
<stop offset="0.759732" stop-color="#FF5F5C"/>
</linearGradient>
<linearGradient id="paint5_linear_77_77" x1="799" y1="-455.848" x2="799" y2="2705.53" gradientUnits="userSpaceOnUse">
<stop offset="0.407013" stop-color="#4F8792"/>
<stop offset="0.759732" stop-color="#FF5F5C"/>
</linearGradient>
<linearGradient id="paint6_linear_77_77" x1="799" y1="-455.848" x2="799" y2="2705.53" gradientUnits="userSpaceOnUse">
<stop offset="0.407013" stop-color="#4F8792"/>
<stop offset="0.759732" stop-color="#FF5F5C"/>
</linearGradient>
<linearGradient id="paint7_linear_77_77" x1="799" y1="-455.848" x2="799" y2="2705.53" gradientUnits="userSpaceOnUse">
<stop offset="0.407013" stop-color="#4F8792"/>
<stop offset="0.759732" stop-color="#FF5F5C"/>
</linearGradient>
<linearGradient id="paint8_linear_77_77" x1="799" y1="-455.848" x2="799" y2="2705.53" gradientUnits="userSpaceOnUse">
<stop offset="0.407013" stop-color="#4F8792"/>
<stop offset="0.759732" stop-color="#FF5F5C"/>
</linearGradient>
<linearGradient id="paint9_linear_77_77" x1="799" y1="-455.848" x2="799" y2="2705.53" gradientUnits="userSpaceOnUse">
<stop offset="0.407013" stop-color="#4F8792"/>
<stop offset="0.759732" stop-color="#FF5F5C"/>
</linearGradient>
<linearGradient id="paint10_linear_77_77" x1="799" y1="-455.848" x2="799" y2="2705.53" gradientUnits="userSpaceOnUse">
<stop offset="0.407013" stop-color="#4F8792"/>
<stop offset="0.759732" stop-color="#FF5F5C"/>
</linearGradient>
<linearGradient id="paint11_linear_77_77" x1="799" y1="-455.848" x2="799" y2="2705.53" gradientUnits="userSpaceOnUse">
<stop offset="0.407013" stop-color="#4F8792"/>
<stop offset="0.759732" stop-color="#FF5F5C"/>
</linearGradient>
<linearGradient id="paint12_linear_77_77" x1="799" y1="-455.848" x2="799" y2="2705.53" gradientUnits="userSpaceOnUse">
<stop offset="0.407013" stop-color="#4F8792"/>
<stop offset="0.759732" stop-color="#FF5F5C"/>
</linearGradient>
<linearGradient id="paint13_linear_77_77" x1="799" y1="-455.848" x2="799" y2="2705.53" gradientUnits="userSpaceOnUse">
<stop offset="0.407013" stop-color="#4F8792"/>
<stop offset="0.759732" stop-color="#FF5F5C"/>
</linearGradient>
<linearGradient id="paint14_linear_77_77" x1="799" y1="-455.848" x2="799" y2="2705.53" gradientUnits="userSpaceOnUse">
<stop offset="0.407013" stop-color="#4F8792"/>
<stop offset="0.759732" stop-color="#FF5F5C"/>
</linearGradient>
<linearGradient id="paint15_linear_77_77" x1="799" y1="-455.848" x2="799" y2="2705.53" gradientUnits="userSpaceOnUse">
<stop offset="0.407013" stop-color="#4F8792"/>
<stop offset="0.759732" stop-color="#FF5F5C"/>
</linearGradient>
<linearGradient id="paint16_linear_77_77" x1="799" y1="-455.848" x2="799" y2="2705.53" gradientUnits="userSpaceOnUse">
<stop offset="0.407013" stop-color="#4F8792"/>
<stop offset="0.759732" stop-color="#FF5F5C"/>
</linearGradient>
<linearGradient id="paint17_linear_77_77" x1="799" y1="-455.848" x2="799" y2="2705.53" gradientUnits="userSpaceOnUse">
<stop offset="0.407013" stop-color="#4F8792"/>
<stop offset="0.759732" stop-color="#FF5F5C"/>
</linearGradient>
<linearGradient id="paint18_linear_77_77" x1="799" y1="-455.848" x2="799" y2="2705.53" gradientUnits="userSpaceOnUse">
<stop offset="0.407013" stop-color="#4F8792"/>
<stop offset="0.759732" stop-color="#FF5F5C"/>
</linearGradient>
<linearGradient id="paint19_linear_77_77" x1="799" y1="-455.848" x2="799" y2="2705.53" gradientUnits="userSpaceOnUse">
<stop offset="0.407013" stop-color="#4F8792"/>
<stop offset="0.759732" stop-color="#FF5F5C"/>
</linearGradient>
<linearGradient id="paint20_linear_77_77" x1="799" y1="-455.848" x2="799" y2="2705.53" gradientUnits="userSpaceOnUse">
<stop offset="0.407013" stop-color="#4F8792"/>
<stop offset="0.759732" stop-color="#FF5F5C"/>
</linearGradient>
<linearGradient id="paint21_linear_77_77" x1="799" y1="-455.848" x2="799" y2="2705.53" gradientUnits="userSpaceOnUse">
<stop offset="0.407013" stop-color="#4F8792"/>
<stop offset="0.759732" stop-color="#FF5F5C"/>
</linearGradient>
<linearGradient id="paint22_linear_77_77" x1="799" y1="-455.848" x2="799" y2="2705.53" gradientUnits="userSpaceOnUse">
<stop offset="0.407013" stop-color="#4F8792"/>
<stop offset="0.759732" stop-color="#FF5F5C"/>
</linearGradient>
<linearGradient id="paint23_linear_77_77" x1="799" y1="-455.848" x2="799" y2="2705.53" gradientUnits="userSpaceOnUse">
<stop offset="0.407013" stop-color="#4F8792"/>
<stop offset="0.759732" stop-color="#FF5F5C"/>
</linearGradient>
<linearGradient id="paint24_linear_77_77" x1="799" y1="-455.848" x2="799" y2="2705.53" gradientUnits="userSpaceOnUse">
<stop offset="0.407013" stop-color="#4F8792"/>
<stop offset="0.759732" stop-color="#FF5F5C"/>
</linearGradient>
<linearGradient id="paint25_linear_77_77" x1="799" y1="-455.848" x2="799" y2="2705.53" gradientUnits="userSpaceOnUse">
<stop offset="0.407013" stop-color="#4F8792"/>
<stop offset="0.759732" stop-color="#FF5F5C"/>
</linearGradient>
<linearGradient id="paint26_linear_77_77" x1="799" y1="-455.848" x2="799" y2="2705.53" gradientUnits="userSpaceOnUse">
<stop offset="0.407013" stop-color="#4F8792"/>
<stop offset="0.759732" stop-color="#FF5F5C"/>
</linearGradient>
<linearGradient id="paint27_linear_77_77" x1="799" y1="-455.848" x2="799" y2="2705.53" gradientUnits="userSpaceOnUse">
<stop offset="0.407013" stop-color="#4F8792"/>
<stop offset="0.759732" stop-color="#FF5F5C"/>
</linearGradient>
<linearGradient id="paint28_linear_77_77" x1="799" y1="-455.848" x2="799" y2="2705.53" gradientUnits="userSpaceOnUse">
<stop offset="0.407013" stop-color="#4F8792"/>
<stop offset="0.759732" stop-color="#FF5F5C"/>
</linearGradient>
<linearGradient id="paint29_linear_77_77" x1="799" y1="-455.848" x2="799" y2="2705.53" gradientUnits="userSpaceOnUse">
<stop offset="0.407013" stop-color="#4F8792"/>
<stop offset="0.759732" stop-color="#FF5F5C"/>
</linearGradient>
<linearGradient id="paint30_linear_77_77" x1="799" y1="-455.848" x2="799" y2="2705.53" gradientUnits="userSpaceOnUse">
<stop offset="0.407013" stop-color="#4F8792"/>
<stop offset="0.759732" stop-color="#FF5F5C"/>
</linearGradient>
<linearGradient id="paint31_linear_77_77" x1="799" y1="-455.848" x2="799" y2="2705.53" gradientUnits="userSpaceOnUse">
<stop offset="0.407013" stop-color="#4F8792"/>
<stop offset="0.759732" stop-color="#FF5F5C"/>
</linearGradient>
<linearGradient id="paint32_linear_77_77" x1="799" y1="-455.848" x2="799" y2="2705.53" gradientUnits="userSpaceOnUse">
<stop offset="0.407013" stop-color="#4F8792"/>
<stop offset="0.759732" stop-color="#FF5F5C"/>
</linearGradient>
<linearGradient id="paint33_linear_77_77" x1="799" y1="-455.848" x2="799" y2="2705.53" gradientUnits="userSpaceOnUse">
<stop offset="0.407013" stop-color="#4F8792"/>
<stop offset="0.759732" stop-color="#FF5F5C"/>
</linearGradient>
<linearGradient id="paint34_linear_77_77" x1="799" y1="-455.848" x2="799" y2="2705.53" gradientUnits="userSpaceOnUse">
<stop offset="0.407013" stop-color="#4F8792"/>
<stop offset="0.759732" stop-color="#FF5F5C"/>
</linearGradient>
<linearGradient id="paint35_linear_77_77" x1="799" y1="-455.848" x2="799" y2="2705.53" gradientUnits="userSpaceOnUse">
<stop offset="0.407013" stop-color="#4F8792"/>
<stop offset="0.759732" stop-color="#FF5F5C"/>
</linearGradient>
<linearGradient id="paint36_linear_77_77" x1="799" y1="-455.848" x2="799" y2="2705.53" gradientUnits="userSpaceOnUse">
<stop offset="0.407013" stop-color="#4F8792"/>
<stop offset="0.759732" stop-color="#FF5F5C"/>
</linearGradient>
<linearGradient id="paint37_linear_77_77" x1="799" y1="-455.848" x2="799" y2="2705.53" gradientUnits="userSpaceOnUse">
<stop offset="0.407013" stop-color="#4F8792"/>
<stop offset="0.759732" stop-color="#FF5F5C"/>
</linearGradient>
<linearGradient id="paint38_linear_77_77" x1="799" y1="-455.848" x2="799" y2="2705.53" gradientUnits="userSpaceOnUse">
<stop offset="0.407013" stop-color="#4F8792"/>
<stop offset="0.759732" stop-color="#FF5F5C"/>
</linearGradient>
<linearGradient id="paint39_linear_77_77" x1="799" y1="-455.848" x2="799" y2="2705.53" gradientUnits="userSpaceOnUse">
<stop offset="0.407013" stop-color="#4F8792"/>
<stop offset="0.759732" stop-color="#FF5F5C"/>
</linearGradient>
<linearGradient id="paint40_linear_77_77" x1="799" y1="-455.848" x2="799" y2="2705.53" gradientUnits="userSpaceOnUse">
<stop offset="0.407013" stop-color="#4F8792"/>
<stop offset="0.759732" stop-color="#FF5F5C"/>
</linearGradient>
<linearGradient id="paint41_linear_77_77" x1="799" y1="-455.848" x2="799" y2="2705.53" gradientUnits="userSpaceOnUse">
<stop offset="0.407013" stop-color="#4F8792"/>
<stop offset="0.759732" stop-color="#FF5F5C"/>
</linearGradient>
<linearGradient id="paint42_linear_77_77" x1="799" y1="-455.848" x2="799" y2="2705.53" gradientUnits="userSpaceOnUse">
<stop offset="0.407013" stop-color="#4F8792"/>
<stop offset="0.759732" stop-color="#FF5F5C"/>
</linearGradient>
<linearGradient id="paint43_linear_77_77" x1="799" y1="-455.848" x2="799" y2="2705.53" gradientUnits="userSpaceOnUse">
<stop offset="0.407013" stop-color="#4F8792"/>
<stop offset="0.759732" stop-color="#FF5F5C"/>
</linearGradient>
<linearGradient id="paint44_linear_77_77" x1="799" y1="-455.848" x2="799" y2="2705.53" gradientUnits="userSpaceOnUse">
<stop offset="0.407013" stop-color="#4F8792"/>
<stop offset="0.759732" stop-color="#FF5F5C"/>
</linearGradient>
<linearGradient id="paint45_linear_77_77" x1="799" y1="-455.848" x2="799" y2="2705.53" gradientUnits="userSpaceOnUse">
<stop offset="0.407013" stop-color="#4F8792"/>
<stop offset="0.759732" stop-color="#FF5F5C"/>
</linearGradient>
<linearGradient id="paint46_linear_77_77" x1="799" y1="-455.848" x2="799" y2="2705.53" gradientUnits="userSpaceOnUse">
<stop offset="0.407013" stop-color="#4F8792"/>
<stop offset="0.759732" stop-color="#FF5F5C"/>
</linearGradient>
<linearGradient id="paint47_linear_77_77" x1="799" y1="-455.848" x2="799" y2="2705.53" gradientUnits="userSpaceOnUse">
<stop offset="0.407013" stop-color="#4F8792"/>
<stop offset="0.759732" stop-color="#FF5F5C"/>
</linearGradient>
<linearGradient id="paint48_linear_77_77" x1="799" y1="-455.848" x2="799" y2="2705.53" gradientUnits="userSpaceOnUse">
<stop offset="0.407013" stop-color="#4F8792"/>
<stop offset="0.759732" stop-color="#FF5F5C"/>
</linearGradient>
<linearGradient id="paint49_linear_77_77" x1="799" y1="-455.848" x2="799" y2="2705.53" gradientUnits="userSpaceOnUse">
<stop offset="0.407013" stop-color="#4F8792"/>
<stop offset="0.759732" stop-color="#FF5F5C"/>
</linearGradient>
<linearGradient id="paint50_linear_77_77" x1="799" y1="-455.848" x2="799" y2="2705.53" gradientUnits="userSpaceOnUse">
<stop offset="0.407013" stop-color="#4F8792"/>
<stop offset="0.759732" stop-color="#FF5F5C"/>
</linearGradient>
<linearGradient id="paint51_linear_77_77" x1="799" y1="-455.848" x2="799" y2="2705.53" gradientUnits="userSpaceOnUse">
<stop offset="0.407013" stop-color="#4F8792"/>
<stop offset="0.759732" stop-color="#FF5F5C"/>
</linearGradient>
<linearGradient id="paint52_linear_77_77" x1="799" y1="-455.848" x2="799" y2="2705.53" gradientUnits="userSpaceOnUse">
<stop offset="0.407013" stop-color="#4F8792"/>
<stop offset="0.759732" stop-color="#FF5F5C"/>
</linearGradient>
<linearGradient id="paint53_linear_77_77" x1="799" y1="-455.848" x2="799" y2="2705.53" gradientUnits="userSpaceOnUse">
<stop offset="0.407013" stop-color="#4F8792"/>
<stop offset="0.759732" stop-color="#FF5F5C"/>
</linearGradient>
<linearGradient id="paint54_linear_77_77" x1="799" y1="-455.848" x2="799" y2="2705.53" gradientUnits="userSpaceOnUse">
<stop offset="0.407013" stop-color="#4F8792"/>
<stop offset="0.759732" stop-color="#FF5F5C"/>
</linearGradient>
<linearGradient id="paint55_linear_77_77" x1="799" y1="-455.848" x2="799" y2="2705.53" gradientUnits="userSpaceOnUse">
<stop offset="0.407013" stop-color="#4F8792"/>
<stop offset="0.759732" stop-color="#FF5F5C"/>
</linearGradient>
<linearGradient id="paint56_linear_77_77" x1="799" y1="-455.848" x2="799" y2="2705.53" gradientUnits="userSpaceOnUse">
<stop offset="0.407013" stop-color="#4F8792"/>
<stop offset="0.759732" stop-color="#FF5F5C"/>
</linearGradient>
<linearGradient id="paint57_linear_77_77" x1="799" y1="-455.848" x2="799" y2="2705.53" gradientUnits="userSpaceOnUse">
<stop offset="0.407013" stop-color="#4F8792"/>
<stop offset="0.759732" stop-color="#FF5F5C"/>
</linearGradient>
<linearGradient id="paint58_linear_77_77" x1="799" y1="-455.848" x2="799" y2="2705.53" gradientUnits="userSpaceOnUse">
<stop offset="0.407013" stop-color="#4F8792"/>
<stop offset="0.759732" stop-color="#FF5F5C"/>
</linearGradient>
<linearGradient id="paint59_linear_77_77" x1="799" y1="-455.848" x2="799" y2="2705.53" gradientUnits="userSpaceOnUse">
<stop offset="0.407013" stop-color="#4F8792"/>
<stop offset="0.759732" stop-color="#FF5F5C"/>
</linearGradient>
<linearGradient id="paint60_linear_77_77" x1="799" y1="-455.848" x2="799" y2="2705.53" gradientUnits="userSpaceOnUse">
<stop offset="0.407013" stop-color="#4F8792"/>
<stop offset="0.759732" stop-color="#FF5F5C"/>
</linearGradient>
<linearGradient id="paint61_linear_77_77" x1="799" y1="-455.848" x2="799" y2="2705.53" gradientUnits="userSpaceOnUse">
<stop offset="0.407013" stop-color="#4F8792"/>
<stop offset="0.759732" stop-color="#FF5F5C"/>
</linearGradient>
</defs>
</svg>
