<svg width="413" height="413" viewBox="0 0 413 413" fill="none" xmlns="http://www.w3.org/2000/svg">
<path fill-rule="evenodd" clip-rule="evenodd" d="M413 0H0V413H413V0ZM327.655 86.7C332.621 72.6396 346.786 67.8253 359.292 75.9467C371.798 84.0682 377.91 102.05 372.943 116.11L298.115 327.954C293.148 342.014 278.984 346.828 266.478 338.707C265.095 337.808 263.789 336.789 262.568 335.668C259.641 334.062 256.981 331.508 254.851 328.03L199.65 237.901L158.38 315.532C153.815 324.119 145.885 327.682 138.142 325.668C126.165 332.046 113.187 327.036 108.432 313.753L40.7663 124.714C35.7409 110.675 41.8052 92.71 54.3112 84.5885C66.8172 76.467 81.0292 81.2644 86.0545 95.3038L140.398 247.124L170.555 190.398L168.411 186.897C161.2 175.122 162.792 157.214 171.968 146.896C181.143 136.579 194.427 137.76 201.639 149.535L267.485 257.044L327.655 86.7Z" fill="url(#paint0_linear_145_11)"/>
<path fill-rule="evenodd" clip-rule="evenodd" d="M413 0H0V413H413V0ZM327.655 86.7C332.621 72.6396 346.786 67.8253 359.292 75.9467C371.798 84.0682 377.91 102.05 372.943 116.11L298.115 327.954C293.148 342.014 278.984 346.828 266.478 338.707C265.095 337.808 263.789 336.789 262.568 335.668C259.641 334.062 256.981 331.508 254.851 328.03L199.65 237.901L158.38 315.532C153.815 324.119 145.885 327.682 138.142 325.668C126.165 332.046 113.187 327.036 108.432 313.753L40.7663 124.714C35.7409 110.675 41.8052 92.71 54.3112 84.5885C66.8172 76.467 81.0292 81.2644 86.0545 95.3038L140.398 247.124L170.555 190.398L168.411 186.897C161.2 175.122 162.792 157.214 171.968 146.896C181.143 136.579 194.427 137.76 201.639 149.535L267.485 257.044L327.655 86.7Z" fill="url(#paint1_linear_145_11)"/>
<defs>
<linearGradient id="paint0_linear_145_11" x1="59.5" y1="-62.4167" x2="397.833" y2="494.667" gradientUnits="userSpaceOnUse">
<stop offset="0.106159" stop-color="#2C3E50"/>
<stop offset="0.925408" stop-color="#AE748F"/>
</linearGradient>
<linearGradient id="paint1_linear_145_11" x1="388.5" y1="-35.5834" x2="-5.33504e-06" y2="475.417" gradientUnits="userSpaceOnUse">
<stop stop-color="#4F8792"/>
<stop offset="0.989805" stop-color="#FF5F5C"/>
</linearGradient>
</defs>
</svg>
