<svg width="100" height="100" viewBox="0 0 100 100" fill="none" xmlns="http://www.w3.org/2000/svg">
<path d="M37.5 50C42.4728 50 47.2419 48.0246 50.7583 44.5083C54.2746 40.9919 56.25 36.2228 56.25 31.25C56.25 26.2772 54.2746 21.5081 50.7583 17.9917C47.2419 14.4754 42.4728 12.5 37.5 12.5C32.5272 12.5 27.7581 14.4754 24.2417 17.9917C20.7254 21.5081 18.75 26.2772 18.75 31.25C18.75 36.2228 20.7254 40.9919 24.2417 44.5083C27.7581 48.0246 32.5272 50 37.5 50ZM6.25 87.5C6.25 87.5 0 87.5 0 81.25C0 75 6.25 56.25 37.5 56.25C68.75 56.25 75 75 75 81.25C75 87.5 68.75 87.5 68.75 87.5H6.25ZM68.75 21.875C68.75 21.0462 69.0792 20.2513 69.6653 19.6653C70.2513 19.0792 71.0462 18.75 71.875 18.75H96.875C97.7038 18.75 98.4987 19.0792 99.0847 19.6653C99.6708 20.2513 100 21.0462 100 21.875C100 22.7038 99.6708 23.4987 99.0847 24.0847C98.4987 24.6708 97.7038 25 96.875 25H71.875C71.0462 25 70.2513 24.6708 69.6653 24.0847C69.0792 23.4987 68.75 22.7038 68.75 21.875ZM71.875 37.5C71.0462 37.5 70.2513 37.8292 69.6653 38.4153C69.0792 39.0013 68.75 39.7962 68.75 40.625C68.75 41.4538 69.0792 42.2487 69.6653 42.8347C70.2513 43.4208 71.0462 43.75 71.875 43.75H96.875C97.7038 43.75 98.4987 43.4208 99.0847 42.8347C99.6708 42.2487 100 41.4538 100 40.625C100 39.7962 99.6708 39.0013 99.0847 38.4153C98.4987 37.8292 97.7038 37.5 96.875 37.5H71.875ZM84.375 56.25C83.5462 56.25 82.7513 56.5792 82.1653 57.1653C81.5792 57.7513 81.25 58.5462 81.25 59.375C81.25 60.2038 81.5792 60.9987 82.1653 61.5847C82.7513 62.1708 83.5462 62.5 84.375 62.5H96.875C97.7038 62.5 98.4987 62.1708 99.0847 61.5847C99.6708 60.9987 100 60.2038 100 59.375C100 58.5462 99.6708 57.7513 99.0847 57.1653C98.4987 56.5792 97.7038 56.25 96.875 56.25H84.375ZM84.375 75C83.5462 75 82.7513 75.3292 82.1653 75.9153C81.5792 76.5013 81.25 77.2962 81.25 78.125C81.25 78.9538 81.5792 79.7487 82.1653 80.3347C82.7513 80.9208 83.5462 81.25 84.375 81.25H96.875C97.7038 81.25 98.4987 80.9208 99.0847 80.3347C99.6708 79.7487 100 78.9538 100 78.125C100 77.2962 99.6708 76.5013 99.0847 75.9153C98.4987 75.3292 97.7038 75 96.875 75H84.375Z" fill="#FCD7AD"/>
</svg>
