<svg width="30" height="30" viewBox="0 0 30 30" fill="none" xmlns="http://www.w3.org/2000/svg">
<path d="M0.09375 6.66563C0.282784 5.83733 0.747479 5.09777 1.41173 4.56808C2.07598 4.03838 2.90041 3.74994 3.75 3.75H26.25C27.0996 3.74994 27.924 4.03838 28.5883 4.56808C29.2525 5.09777 29.7172 5.83733 29.9063 6.66563L15 15.7763L0.09375 6.66563ZM0 8.80688V22.1269L10.8806 15.4556L0 8.80688ZM12.6769 16.5563L0.358125 24.105C0.662219 24.7471 1.14248 25.2897 1.74298 25.6694C2.34348 26.0492 3.0395 26.2505 3.75 26.25H15.48C15.1615 25.3465 14.9992 24.3955 15 23.4375C14.9987 22.2058 15.2677 20.9888 15.788 19.8724C16.3083 18.756 17.0672 17.7674 18.0112 16.9763L17.3231 16.5544L15 17.9738L12.6769 16.5563ZM30 8.80688V18.1331C29.209 17.1546 28.2091 16.3654 27.0736 15.8233C25.9381 15.2812 24.6958 14.9999 23.4375 15C22.1614 14.999 20.9016 15.2875 19.7531 15.8438L19.1194 15.4556L30 8.80688Z" fill="#EFF4F7"/>
<path d="M30 23.4375C30 25.178 29.3086 26.8472 28.0779 28.0779C26.8472 29.3086 25.178 30 23.4375 30C21.697 30 20.0278 29.3086 18.7971 28.0779C17.5664 26.8472 16.875 25.178 16.875 23.4375C16.875 21.697 17.5664 20.0278 18.7971 18.7971C20.0278 17.5664 21.697 16.875 23.4375 16.875C25.178 16.875 26.8472 17.5664 28.0779 18.7971C29.3086 20.0278 30 21.697 30 23.4375ZM26.2631 20.2894C26.1575 20.2261 26.0404 20.1842 25.9186 20.1661C25.7968 20.1481 25.6726 20.1542 25.5532 20.1842C25.4337 20.2141 25.3214 20.2673 25.2225 20.3407C25.1236 20.4141 25.0401 20.5062 24.9769 20.6119L22.7831 24.2681L21.7575 23.2425C21.5815 23.0665 21.3427 22.9676 21.0938 22.9676C20.8448 22.9676 20.606 23.0665 20.43 23.2425C20.254 23.4185 20.1551 23.6573 20.1551 23.9062C20.1551 24.1552 20.254 24.394 20.43 24.57L21.8813 26.0194C22.0323 26.1707 22.2159 26.2856 22.418 26.3554C22.6202 26.4251 22.8355 26.4478 23.0478 26.4218C23.26 26.3957 23.4635 26.3216 23.6428 26.2051C23.8221 26.0886 23.9725 25.9327 24.0825 25.7494L26.5856 21.5756C26.6489 21.47 26.6908 21.3529 26.7089 21.2311C26.7269 21.1093 26.7208 20.9851 26.6908 20.8657C26.6609 20.7462 26.6077 20.6339 26.5343 20.535C26.4609 20.4361 26.3688 20.3526 26.2631 20.2894Z" fill="#EFF4F7"/>
</svg>
