<svg width="100" height="100" viewBox="0 0 100 100" fill="none" xmlns="http://www.w3.org/2000/svg">
<g clip-path="url(#clip0_205_6)">
<path d="M0.0126953 18.75C0.0126953 15.4348 1.32966 12.2554 3.67386 9.91117C6.01807 7.56696 9.19749 6.25 12.5127 6.25H87.5127C90.8279 6.25 94.0073 7.56696 96.3515 9.91117C98.6957 12.2554 100.013 15.4348 100.013 18.75V81.25C100.013 84.5652 98.6957 87.7446 96.3515 90.0888C94.0073 92.433 90.8279 93.75 87.5127 93.75H12.5127C9.19749 93.75 6.01807 92.433 3.67386 90.0888C1.32966 87.7446 0.0126953 84.5652 0.0126953 81.25V18.75ZM6.2627 75V81.25C6.2627 82.9076 6.92118 84.4973 8.09328 85.6694C9.26538 86.8415 10.8551 87.5 12.5127 87.5H87.5127C89.1703 87.5 90.76 86.8415 91.9321 85.6694C93.1042 84.4973 93.7627 82.9076 93.7627 81.25V59.375L70.1564 47.2062C69.5703 46.9126 68.9067 46.8108 68.2596 46.9151C67.6124 47.0194 67.0144 47.3246 66.5502 47.7875L43.3627 70.975L26.7377 59.9C26.1374 59.5004 25.4175 59.3206 24.6998 59.3913C23.9822 59.4619 23.311 59.7785 22.8002 60.2875L6.2627 75ZM37.5127 34.375C37.5127 31.8886 36.525 29.504 34.7668 27.7459C33.0087 25.9877 30.6241 25 28.1377 25C25.6513 25 23.2667 25.9877 21.5086 27.7459C19.7504 29.504 18.7627 31.8886 18.7627 34.375C18.7627 36.8614 19.7504 39.246 21.5086 41.0041C23.2667 42.7623 25.6513 43.75 28.1377 43.75C30.6241 43.75 33.0087 42.7623 34.7668 41.0041C36.525 39.246 37.5127 36.8614 37.5127 34.375Z" fill="#FCD7AD"/>
</g>
<defs>
<clipPath id="clip0_205_6">
<rect width="100" height="100" fill="white"/>
</clipPath>
</defs>
</svg>
