<svg width="22" height="22" viewBox="0 0 22 22" fill="none" xmlns="http://www.w3.org/2000/svg">
<g clip-path="url(#clip0_132_13)">
<path d="M11.01 0.123535C5.14052 0.123535 0.386475 4.87758 0.386475 10.7471C0.386475 15.448 3.42747 19.4186 7.65033 20.8262C8.18151 20.9192 8.3807 20.6004 8.3807 20.3216C8.3807 20.0693 8.36742 19.2327 8.36742 18.3429C5.69826 18.8343 5.00772 17.6922 4.79525 17.0947C4.67574 16.7892 4.15784 15.8464 3.70634 15.5941C3.33451 15.3949 2.80333 14.9036 3.69306 14.8903C4.52966 14.877 5.12724 15.6605 5.32643 15.9792C6.28255 17.586 7.80969 17.1345 8.42054 16.8556C8.5135 16.1651 8.79237 15.7003 9.09779 15.4347C6.73405 15.1692 4.26407 14.2529 4.26407 10.1894C4.26407 9.03405 4.67574 8.07793 5.35299 7.33428C5.24675 7.06869 4.87493 5.97977 5.45922 4.51903C5.45922 4.51903 6.34895 4.24016 8.3807 5.60795C9.23059 5.36892 10.1336 5.2494 11.0366 5.2494C11.9396 5.2494 12.8426 5.36892 13.6925 5.60795C15.7242 4.22689 16.614 4.51903 16.614 4.51903C17.1983 5.97977 16.8264 7.06869 16.7202 7.33428C17.3974 8.07793 17.8091 9.02077 17.8091 10.1894C17.8091 14.2661 15.3259 15.1692 12.9621 15.4347C13.3472 15.7667 13.6792 16.4041 13.6792 17.4001C13.6792 18.821 13.6659 19.963 13.6659 20.3216C13.6659 20.6004 13.8651 20.9324 14.3963 20.8262C16.5056 20.1148 18.3385 18.7595 19.6369 16.9513C20.9353 15.1431 21.6336 12.9731 21.6336 10.7471C21.6336 4.87758 16.8796 0.123535 11.01 0.123535Z" fill="white"/>
</g>
<defs>
<clipPath id="clip0_132_13">
<rect width="21.2471" height="21.2471" fill="white" transform="translate(0.386475 0.123535)"/>
</clipPath>
</defs>
</svg>
