<svg width="22" height="22" viewBox="0 0 22 22" fill="none" xmlns="http://www.w3.org/2000/svg">
<path d="M21.0294 9.08528C21.1534 9.79831 21.2151 10.5208 21.214 11.2445C21.214 14.4767 20.0587 17.2096 18.0481 19.0595H18.0508C16.2926 20.6835 13.8757 21.6237 11.01 21.6237C8.19249 21.6237 5.49035 20.5045 3.49804 18.5122C1.50574 16.5199 0.386475 13.8177 0.386475 11.0002C0.386475 8.18263 1.50574 5.48048 3.49804 3.48818C5.49035 1.49588 8.19249 0.376611 11.01 0.376611C13.647 0.347245 16.1933 1.3378 18.1172 3.14139L15.0842 6.17442C13.9876 5.12966 12.5245 4.5574 11.01 4.58089C8.23861 4.58089 5.88417 6.45063 5.04491 8.96842C4.6007 10.2879 4.6007 11.7165 5.04491 13.0359H5.04889C5.89214 15.5497 8.2426 17.4195 11.014 17.4195C12.4455 17.4195 13.6752 17.0529 14.6287 16.4049H14.6247C15.1784 16.0382 15.6521 15.5631 16.0171 15.0083C16.382 14.4534 16.6307 13.8303 16.7481 13.1767H11.01V9.0866L21.0294 9.08528Z" fill="white"/>
</svg>
