<svg width="22" height="22" viewBox="0 0 22 22" fill="none" xmlns="http://www.w3.org/2000/svg">
<g clip-path="url(#clip0_132_15)">
<path d="M0.386475 1.89243C0.386475 1.05184 1.08497 0.370605 1.94681 0.370605H20.0733C20.9351 0.370605 21.6336 1.05184 21.6336 1.89243V20.0959C21.6336 20.9365 20.9351 21.6177 20.0733 21.6177H1.94681C1.08497 21.6177 0.386475 20.9365 0.386475 20.0959V1.89243ZM6.95051 18.1571V8.5627H3.76211V18.1571H6.95051ZM5.35697 7.25202C6.46846 7.25202 7.16032 6.51634 7.16032 5.59474C7.1404 4.65323 6.46979 3.93747 5.37822 3.93747C4.28665 3.93747 3.57354 4.65456 3.57354 5.59474C3.57354 6.51634 4.2654 7.25202 5.33573 7.25202H5.35697ZM11.8745 18.1571V12.7988C11.8745 12.512 11.8958 12.2252 11.9808 12.0207C12.2105 11.4483 12.735 10.8547 13.6168 10.8547C14.7708 10.8547 15.2316 11.7338 15.2316 13.0246V18.1571H18.42V12.6541C18.42 9.70606 16.8477 8.33562 14.7495 8.33562C13.0577 8.33562 12.2995 9.26518 11.8745 9.91986V9.95306H11.8533L11.8745 9.91986V8.5627H8.68746C8.7273 9.46305 8.68746 18.1571 8.68746 18.1571H11.8745Z" fill="white"/>
</g>
<defs>
<clipPath id="clip0_132_15">
<rect width="21.2471" height="21.2471" fill="white" transform="translate(0.386475 0.370605)"/>
</clipPath>
</defs>
</svg>
