<svg width="100" height="100" viewBox="0 0 100 100" fill="none" xmlns="http://www.w3.org/2000/svg">
<g clip-path="url(#clip0_205_9)">
<path fill-rule="evenodd" clip-rule="evenodd" d="M21.875 62.5C21.0462 62.5 20.2513 62.1708 19.6653 61.5847C19.0792 60.9987 18.75 60.2038 18.75 59.375V9.375C18.75 8.5462 19.0792 7.75134 19.6653 7.16529C20.2513 6.57924 21.0462 6.25 21.875 6.25H78.125C78.9538 6.25 79.7487 6.57924 80.3347 7.16529C80.9208 7.75134 81.25 8.5462 81.25 9.375V59.375C81.25 60.2038 80.9208 60.9987 80.3347 61.5847C79.7487 62.1708 78.9538 62.5 78.125 62.5H65.625C64.7962 62.5 64.0013 62.8292 63.4153 63.4153C62.8292 64.0013 62.5 64.7962 62.5 65.625C62.5 66.4538 62.8292 67.2487 63.4153 67.8347C64.0013 68.4208 64.7962 68.75 65.625 68.75H78.125C80.6114 68.75 82.996 67.7623 84.7541 66.0041C86.5123 64.246 87.5 61.8614 87.5 59.375V9.375C87.5 6.8886 86.5123 4.50403 84.7541 2.74587C82.996 0.98772 80.6114 0 78.125 0L21.875 0C19.3886 0 17.004 0.98772 15.2459 2.74587C13.4877 4.50403 12.5 6.8886 12.5 9.375V59.375C12.5 61.8614 13.4877 64.246 15.2459 66.0041C17.004 67.7623 19.3886 68.75 21.875 68.75H34.375C35.2038 68.75 35.9987 68.4208 36.5847 67.8347C37.1708 67.2487 37.5 66.4538 37.5 65.625C37.5 64.7962 37.1708 64.0013 36.5847 63.4153C35.9987 62.8292 35.2038 62.5 34.375 62.5H21.875Z" fill="#FCD7AD"/>
<path fill-rule="evenodd" clip-rule="evenodd" d="M47.7875 99.0875C48.0778 99.3785 48.4227 99.6094 48.8023 99.767C49.182 99.9245 49.589 100.006 50 100.006C50.4111 100.006 50.8181 99.9245 51.1978 99.767C51.5774 99.6094 51.9223 99.3785 52.2125 99.0875L70.9625 80.3375C71.5493 79.7507 71.879 78.9548 71.879 78.125C71.879 77.2952 71.5493 76.4993 70.9625 75.9125C70.3758 75.3257 69.5799 74.9961 68.75 74.9961C67.9202 74.9961 67.1243 75.3257 66.5375 75.9125L53.125 89.3313V34.375C53.125 33.5462 52.7958 32.7513 52.2098 32.1653C51.6237 31.5792 50.8288 31.25 50 31.25C49.1712 31.25 48.3764 31.5792 47.7903 32.1653C47.2043 32.7513 46.875 33.5462 46.875 34.375V89.3313L33.4625 75.9125C32.8758 75.3257 32.0799 74.9961 31.25 74.9961C30.4202 74.9961 29.6243 75.3257 29.0375 75.9125C28.4508 76.4993 28.1211 77.2952 28.1211 78.125C28.1211 78.9548 28.4508 79.7507 29.0375 80.3375L47.7875 99.0875Z" fill="#FCD7AD"/>
</g>
<defs>
<clipPath id="clip0_205_9">
<rect width="100" height="100" fill="white"/>
</clipPath>
</defs>
</svg>
