<svg width="30" height="31" viewBox="0 0 30 31" fill="none" xmlns="http://www.w3.org/2000/svg">
<g clip-path="url(#clip0_126_453)">
<path d="M22.0162 19.5727C23.8318 17.0952 24.6449 14.0236 24.293 10.9723C23.9411 7.92107 22.4501 5.11519 20.1183 3.11605C17.7864 1.11691 14.7858 0.0719353 11.7165 0.190197C8.64733 0.30846 5.73595 1.58123 3.56485 3.75388C1.39376 5.92653 0.123069 8.83882 0.00700327 11.9081C-0.109063 14.9774 0.938054 17.9774 2.93886 20.3078C4.93967 22.6382 7.74662 24.1272 10.7981 24.4769C13.8496 24.8266 16.9207 24.0113 19.3968 22.1939H19.395C19.45 22.2689 19.5112 22.3408 19.5787 22.4096L26.7975 29.6283C27.1491 29.9801 27.626 30.1779 28.1234 30.1781C28.6208 30.1782 29.0978 29.9808 29.4497 29.6292C29.8015 29.2777 29.9992 28.8007 29.9994 28.3033C29.9996 27.806 29.8022 27.3289 29.4506 26.9771L22.2318 19.7583C22.1648 19.6904 22.0928 19.6296 22.0162 19.5727ZM22.5 12.3652C22.5 13.7194 22.2332 15.0604 21.715 16.3116C21.1967 17.5628 20.4371 18.6996 19.4795 19.6572C18.5219 20.6148 17.3851 21.3744 16.1339 21.8927C14.8827 22.4109 13.5417 22.6777 12.1875 22.6777C10.8332 22.6777 9.49222 22.4109 8.24105 21.8927C6.98988 21.3744 5.85304 20.6148 4.89544 19.6572C3.93783 18.6996 3.17822 17.5628 2.65997 16.3116C2.14172 15.0604 1.87497 13.7194 1.87497 12.3652C1.87497 9.63013 2.96147 7.00711 4.89544 5.07314C6.8294 3.13917 9.45243 2.05268 12.1875 2.05268C14.9225 2.05268 17.5455 3.13917 19.4795 5.07314C21.4135 7.00711 22.5 9.63013 22.5 12.3652Z" fill="white"/>
</g>
<defs>
<clipPath id="clip0_126_453">
<rect width="30" height="30" fill="white" transform="translate(0 0.177734)"/>
</clipPath>
</defs>
</svg>
